# xmcd CD database file
# Copyright (C) 1993-1998 Ti Kan
#
# Track frame offsets:
#	182
#	15902
#	33735
#	49327
#	62635
#	81577
#	95852
#	111400
#	129895
#	148662
#	165202
#	179900
#	198260
#	213945
#	229795
#	243920
#
# Disc length: 3467 seconds
#
# Revision: 1
# Processed by: cddbd v1.4b41PL1 Copyright (c) Steve Scherf et al.
# Submitted via: CDValet v3.31 - Copyright (c) 1997 Greg Leichner
#
DISCID=e20d8910
DTITLE=Juice Newton - Country Classics
DYEAR=1900
DGENRE=
TTITLE0=It's A Heartache
TTITLE1=Let's Keep It That Way
TTITLE2=Any Way You Want Me
TTITLE3=Sunshine
TTITLE4=Angel Of The Morning
TTITLE5=All I Have To Do Is Dream
TTITLE6=Queen Of Hearts
TTITLE7=The Sweetest Thing (I've Ever Known)
TTITLE8=Heart Of The Night
TTITLE9=I'm Gonna Be Strong
TTITLE10=Love's Been A Little Bit Hard On Me
TTITLE11=Break It To Me Gently
TTITLE12=Come To Me
TTITLE13=Love Like Yours
TTITLE14=Hey Baby
TTITLE15=Tell Her No
EXTD=
EXTT0=
EXTT1=
EXTT2=
EXTT3=
EXTT4=
EXTT5=
EXTT6=
EXTT7=
EXTT8=
EXTT9=
EXTT10=
EXTT11=
EXTT12=
EXTT13=
EXTT14=
EXTT15=
PLAYORDER=
